# xmcd CD database file
#
# Track frame offsets:
#	150
#	24388
#	51688
#	75470
#	103745
#	139196
#	150971
#	169327
#	187196
#	207813
#	222137
#	263617
#	307547
#	331687
#
# Disc length: 4982 seconds
#
# Revision: 0
# Processed by: cddbd v1.5.2PL0 Copyright (c) Steve Scherf et al.
# Submitted via: CDex 1.83
#
DISCID=b513740e
DTITLE=Roy Eldridge - The Verve Collection CD01 The Urbane Jazz Of 1957 Trumpet Battle
DYEAR=1957
DGENRE=Jazz
TTITLE0=Still Love Him So
TTITLE1=The Moon Is Low
TTITLE2=I Missed My Hat
TTITLE3=I Remember You, Chelsea Morning,I've Got The World On A String
TTITLE4=Polite Blues
TTITLE5=Close Your Eyes
TTITLE6=Where's Art
TTITLE7=I Don't Know
TTITLE8=Striding
TTITLE9=Wailing
TTITLE10=I've Found A New Baby
TTITLE11=I Can't Get Started
TTITLE12=Sometimes I'm Happy
TTITLE13=Ballad Medley
EXTD=YEAR: 1957
EXTT0=
EXTT1=
EXTT2=
EXTT3=
EXTT4=
EXTT5=
EXTT6=
EXTT7=
EXTT8=
EXTT9=
EXTT10=
EXTT11=
EXTT12=
EXTT13=
PLAYORDER=
